# xmcd
#
# Track frame offsets:
#	150
#	18715
#	32623
#	46185
#	64781
#	86141
#	98240
#	112230
#	124837
#	148770
#	169939
#	186279
#	205874
#
# Disc length: 2937 seconds
#
# Revision: 1
# Processed by: cddbd v1.4PL0 Copyright (c) Steve Scherf et al.
# Submitted via: EasyCDDAExtractor 5.0.6
#
DISCID=bf0b770d
DTITLE=Blues4Men - Live 2002
DYEAR=2002
DGENRE=Blues
TTITLE0=Dest
TTITLE1=Will be my woman home tonight
TTITLE2=Sweet home Chicago
TTITLE3=Little Girl
TTITLE4=Ten vlak
TTITLE5=Marry had a little lamb
TTITLE6=Lednove blues
TTITLE7=Motorkar
TTITLE8=Laska jako blues je
TTITLE9=Jednou
TTITLE10=Walking blues
TTITLE11=Tlusta zenska
TTITLE12=Rekni mi
EXTD=
EXTT0=
EXTT1=
EXTT2=
EXTT3=
EXTT4=
EXTT5=
EXTT6=
EXTT7=
EXTT8=
EXTT9=
EXTT10=
EXTT11=
EXTT12=
PLAYORDER=
